<svg xmlns="http://www.w3.org/2000/svg" viewBox="0 0 32 32" width="32" height="32">
  <defs>
    <linearGradient id="earthGradient" x1="0%" y1="0%" x2="100%" y2="100%">
      <stop offset="0%" style="stop-color:#009933;stop-opacity:1" />
      <stop offset="100%" style="stop-color:#007a29;stop-opacity:1" />
    </linearGradient>
    <linearGradient id="networkGradient" x1="0%" y1="0%" x2="100%" y2="0%">
      <stop offset="0%" style="stop-color:#003366;stop-opacity:1" />
      <stop offset="100%" style="stop-color:#004080;stop-opacity:0.8" />
    </linearGradient>
  </defs>
  
  <!-- Globe/Earth base -->
  <circle cx="16" cy="16" r="14" fill="url(#earthGradient)" stroke="#003366" stroke-width="1"/>
  
  <!-- Land masses (simplified for favicon size) -->
  <path d="M8 12 Q12 8 16 10 Q20 8 24 12 Q22 16 18 18 Q16 20 14 18 Q10 16 8 12 Z" fill="#003366" opacity="0.8"/>
  <path d="M6 18 Q8 16 10 18 Q12 22 9 24 Q6 22 4 20 Q4 18 6 18 Z" fill="#003366" opacity="0.8"/>
  <path d="M22 20 Q24 18 26 20 Q28 22 26 24 Q24 26 22 24 Q20 22 22 20 Z" fill="#003366" opacity="0.8"/>
  
  <!-- Simplified digital network overlay for favicon -->
  <g stroke="url(#networkGradient)" stroke-width="1" fill="none" opacity="0.9">
    <!-- Key grid lines -->
    <path d="M2 16 Q16 12 30 16"/>
    <path d="M2 16 Q16 20 30 16"/>
    <path d="M16 2 Q12 16 16 30"/>
    <path d="M16 2 Q20 16 16 30"/>
    
    <!-- Central connection node -->
    <circle cx="16" cy="16" r="1.5" fill="#009933"/>
    <!-- Corner nodes -->
    <circle cx="10" cy="13" r="1" fill="#003366"/>
    <circle cx="22" cy="13" r="1" fill="#003366"/>
    <circle cx="13" cy="22" r="1" fill="#003366"/>
    <circle cx="19" cy="22" r="1" fill="#003366"/>
  </g>
</svg>