<svg id="Stacked" xmlns="http://www.w3.org/2000/svg" viewBox="0 0 350 350"><defs><style>.cls-1{fill:#2c5467;}</style></defs><path class="cls-1" d="M150,13.45A163.65,163.65,0,0,0,34,92.69a6.75,6.75,0,0,0,1.07.66c10.82,3.53,21.6,7.23,32.51,10.46a56.76,56.76,0,0,0,13.19,2c4.48.23,6-1.34,6.85-5.8A43.85,43.85,0,0,0,88,94.48c.27-4.39.42-8.8,2.33-12.88,2-4.34,5.24-7.15,10.16-7.77a19.75,19.75,0,0,1,13.79,3.62c6.4,4.4,12.54,9.2,18.56,14.11s11.53,10.52,17.74,15.18a52.2,52.2,0,0,0,13,6.76c4.77,1.79,7.56,0,9.15-4.94a10.55,10.55,0,0,0,.45-1.55,79,79,0,0,0,.17-26.22c-1.13-6.93-4.62-12.84-8.21-18.71-2.5-4.07-5.23-8-7.23-12.36-3.76-8.1-5.19-16.88-6.5-25.65-.52-3.47-1-6.95-1.46-10.62m175.17,96.17a15.74,15.74,0,0,0-1.23,1c-1.35,1.48-2.69,3-4,4.48-8.6,9.59-14.43,20.48-15.86,33.49-1.5,13.7-3.11,27.39-4.59,41.1a288,288,0,0,1-6.58,39.6c-3.88,15.46-9.62,30-19.68,42.71-13.42,16.87-30.5,25.85-52.29,25.05q-8-.29-15.92-.9c-9.6-.74-19.19-1.65-28.78-2.4-10.93-.85-21.86-1.6-32.77.07-19.74,3-27,13.65-29.83,30-.37,2.18.34,3.06,2.36,3.82a165.25,165.25,0,0,0,105.2,4.44c73.8-21.72,122.42-92,117.06-167.86a164.64,164.64,0,0,0-8-40.91c-1.5-4.51-3.3-8.91-5.07-13.67M161.64,12.15c.37,3,.72,5.68,1.05,8.4,1.56,12.75,4.53,24.91,12.37,35.58,9.56,13,11.93,28,10.72,43.76A64,64,0,0,1,184,111.51c-2.88,10.7-11.1,15.7-22,13.61a41,41,0,0,1-18-8.69c-7.45-6-14.48-12.5-21.71-18.76-5.25-4.54-10.51-9.11-17.09-11.72-3.4-1.35-4.53-.76-5,2.87-.5,4-.61,8-1,12-.89,10-7.49,16.13-17.48,16.53a56.19,56.19,0,0,1-18.91-2.66c-10.89-3.35-21.68-7-32.49-10.61-1.64-.55-2.44-.27-3.19,1.34a163.35,163.35,0,0,0-15.47,66.13c-.12,5.25-.05,5.21,5.23,5.34,14.12.36,27.73-2.57,41.07-6.76s27-7.6,41-8.89a143.45,143.45,0,0,1,33,.65c13.74,1.9,26.72,5.93,38.71,13a35.67,35.67,0,0,0,7.22,3.06c10.59,3.41,19.15.62,25.53-8.48a47.76,47.76,0,0,0,5.22-9.5c4.46-11.12,7.18-22.74,9.48-34.47s.24-22.79-5.74-33.17a47.21,47.21,0,0,1-3.52-8c-6.35-18.12-9.47-36.95-12.05-55.89-.61-4.42-1-8.87-1.56-13.3-.14-1.15-.09-2.45-1.92-2.62a162,162,0,0,0-31.73-.33M102.18,321.08c.22-.89.45-1.76.63-2.65,3.49-16.71,12.6-28.56,29.25-33.9a73.47,73.47,0,0,1,25.09-3.28c12.56.45,25.08,1.5,37.62,2.26,10.38.63,20.76,1.56,31.14,1.71A41.5,41.5,0,0,0,252.73,276c11.85-9.38,19.69-21.55,24.69-35.68,6.11-17.26,8.69-35.23,10.69-53.32,1.53-13.93,3-27.87,4.73-41.78a63.54,63.54,0,0,1,14.31-32.85c3.37-4.12,6.87-8.15,10.54-12,1.55-1.62,1.68-2.77.52-4.56-3-4.59-5.82-9.28-8.73-13.91a22.26,22.26,0,0,0-1.35-1.77,3.22,3.22,0,0,0-.82.27c-.57.39-1.12.82-1.66,1.25-20.46,16.09-34.75,37-46.63,59.79-5.63,10.79-7.74,22.33-4.92,34.29,2,8.3,4.61,16.45,7.16,24.6,2.26,7.24,4,14.51,3.88,22.19-.25,12.41-7.21,22-19,25.93-8.88,2.92-17.92,2.51-27,1.1-11.7-1.83-22.89-5.47-33.84-9.89a112.77,112.77,0,0,0-31.71-7.88c-12.93-1.23-25.68.1-38.31,3-15.49,3.53-30,9.67-44.44,16.15-8.44,3.79-16.93,7.43-26,9.33-2.6.54-5.21,1-7.86,1.52,6.05,16.6,48.21,54.9,65.24,59.32M207.07,14.68c.09,1.65,0,3,.24,4.23,1.79,11.64,3.35,23.32,5.53,34.89,2.44,13,5.64,25.7,12,37.49,5.53,10.31,6.88,21.4,5.22,33-1.55,10.8-4.41,21.25-7.51,31.65a65.08,65.08,0,0,1-9.9,20.79c-8.81,11.8-20.44,16.59-34.89,13.16a49.65,49.65,0,0,1-13.27-5.22c-16.06-9.31-33.53-12.41-51.74-12.46a148.16,148.16,0,0,0-44.13,6.86c-17.86,5.51-35.78,10.51-54.78,9.16-1.47-.1-1.67.72-1.5,1.89q.39,2.87.73,5.73A161.64,161.64,0,0,0,29,248.45c.87,1.76,1.93,2.41,3.77,2.06,4.45-.87,9.1-1.18,13.33-2.68,9.34-3.32,18.56-7,27.68-11,19-8.19,38.45-15,59.33-16.62,14.73-1.14,29.3-.2,43.45,4.18,9.33,2.9,18.39,6.66,27.71,9.61,11,3.47,22.14,6,33.84,4.47,8.45-1.12,14.41-5.94,15.07-13.53a43.85,43.85,0,0,0-1.07-14.17c-2.17-8.65-5.31-17.05-7.76-25.63-3.62-12.71-4.3-25.47-.08-38.24a117.41,117.41,0,0,1,12.43-25.26c10.24-16.35,21.3-32,36.27-44.52,2.58-2.16,5.14-4.36,7.86-6.67a163.47,163.47,0,0,0-49.88-40.35,159.32,159.32,0,0,0-43.85-15.46M167.37,350A132.1,132.1,0,0,1,151,348.52a164.71,164.71,0,0,1-50.28-14.84q-53.37-25.49-81-77.85C7,231.6.71,205.66.05,178.35a165.61,165.61,0,0,1,3.09-35.87C11.07,101.64,30.83,67.61,62.67,41,97.48,11.81,137.84-1.67,183.28.16a152.93,152.93,0,0,1,32.19,4.43c57.75,15,98.53,49.84,121.94,104.76A161.57,161.57,0,0,1,350,166.83c0,.5,0,4.45,0,8.34s0,7.49,0,7.93a146.39,146.39,0,0,1-3.78,29.27c-14,58.73-48.73,100.22-103.89,124.45A160.63,160.63,0,0,1,183.16,350Z"/></svg>